<svg xmlns="http://www.w3.org/2000/svg" viewBox="0 0 64 64" role="img" aria-label="Multiscale Space Systems">
  <circle cx="32" cy="32" r="31" fill="#0B1F3A"/>
  <circle cx="32" cy="32" r="31" fill="none" stroke="#C8CDD6" stroke-width="2"/>
  <circle cx="32" cy="32" r="26" fill="none" stroke="#1C3A5E" stroke-width="1"/>
  <path d="M14 46 A24 24 0 0 1 50 46" fill="none" stroke="#E8741E" stroke-width="1.4" opacity="0.85"/>
  <g opacity="0.9">
    <line x1="22" y1="14" x2="33" y2="24" stroke="#F2933B" stroke-width="1.4" stroke-linecap="round"/>
    <line x1="28" y1="12" x2="37" y2="22" stroke="#E8741E" stroke-width="1.4" stroke-linecap="round"/>
    <line x1="34" y1="12" x2="41" y2="22" stroke="#F2933B" stroke-width="1.2" stroke-linecap="round"/>
  </g>
  <g transform="rotate(28 34 34)">
    <path d="M28 24 L40 24 L44 38 L24 38 Z" fill="#EDEFF2"/>
    <path d="M28 24 L34 24 L34 38 L24 38 Z" fill="#C8CDD6"/>
    <ellipse cx="34" cy="38" rx="10" ry="3" fill="#E8741E"/>
    <ellipse cx="34" cy="38" rx="6.5" ry="1.8" fill="#FFB36B"/>
    <rect x="30" y="27" width="3" height="2.2" rx="0.5" fill="#1C3A5E"/>
    <rect x="36" y="27" width="3" height="2.2" rx="0.5" fill="#1C3A5E"/>
  </g>
</svg>
